<svg width="19" height="19" viewBox="0 0 19 19" fill="#fff" xmlns="http://www.w3.org/2000/svg">
<path d="M14.9856 4.46672C13.9765 4.00367 12.8943 3.66252 11.7628 3.46713C11.7422 3.46336 11.7216 3.47278 11.711 3.49163C11.5718 3.73917 11.4177 4.0621 11.3097 4.31592C10.0927 4.13373 8.88198 4.13373 7.68995 4.31592C7.58197 4.05646 7.42221 3.73917 7.28241 3.49163C7.2718 3.47341 7.25121 3.46399 7.23061 3.46713C6.09975 3.6619 5.01757 4.00305 4.00779 4.46672C3.99905 4.47049 3.99155 4.47678 3.98658 4.48494C1.93392 7.55157 1.37161 10.5428 1.64746 13.497C1.64871 13.5114 1.65682 13.5253 1.66806 13.534C3.02234 14.5286 4.3342 15.1324 5.62169 15.5326C5.6423 15.5389 5.66413 15.5313 5.67725 15.5144C5.9818 15.0985 6.25329 14.6599 6.48606 14.1988C6.4998 14.1718 6.48668 14.1397 6.45861 14.129C6.02799 13.9657 5.61795 13.7665 5.22352 13.5403C5.19232 13.5221 5.18982 13.4775 5.21852 13.4561C5.30153 13.3939 5.38455 13.3292 5.46381 13.2639C5.47815 13.2519 5.49813 13.2494 5.51499 13.257C8.10621 14.44 10.9115 14.44 13.4722 13.257C13.489 13.2488 13.509 13.2513 13.524 13.2633C13.6033 13.3286 13.6863 13.3939 13.7699 13.4561C13.7986 13.4775 13.7967 13.5221 13.7655 13.5403C13.3711 13.7709 12.961 13.9657 12.5298 14.1284C12.5017 14.1391 12.4892 14.1718 12.503 14.1988C12.7407 14.6593 13.0122 15.0978 13.3112 15.5137C13.3237 15.5313 13.3461 15.5389 13.3667 15.5326C14.6605 15.1324 15.9723 14.5286 17.3266 13.534C17.3385 13.5253 17.3459 13.5121 17.3472 13.4976C17.6773 10.0823 16.7942 7.11555 15.0062 4.48556C15.0018 4.47678 14.9944 4.47049 14.9856 4.46672ZM6.87302 11.6982C6.09288 11.6982 5.45007 10.982 5.45007 10.1024C5.45007 9.22279 6.08042 8.50656 6.87302 8.50656C7.67184 8.50656 8.30843 9.22907 8.29594 10.1024C8.29594 10.982 7.6656 11.6982 6.87302 11.6982ZM12.1341 11.6982C11.354 11.6982 10.7112 10.982 10.7112 10.1024C10.7112 9.22279 11.3415 8.50656 12.1341 8.50656C12.933 8.50656 13.5695 9.22907 13.5571 10.1024C13.5571 10.982 12.933 11.6982 12.1341 11.6982Z" fill="black"/>
</svg>
