<svg width="19" height="19" viewBox="0 0 19 19" fill="#fff" xmlns="http://www.w3.org/2000/svg">
<path fill-rule="evenodd" clip-rule="evenodd" d="M9.4987 1.77832C5.12474 1.77832 1.58203 5.32103 1.58203 9.69499C1.58203 13.1981 3.84818 16.157 6.99505 17.2059C7.39089 17.2752 7.53932 17.0377 7.53932 16.8299C7.53932 16.6419 7.52943 16.0184 7.52943 15.3554C5.54036 15.7215 5.02578 14.8705 4.86745 14.4252C4.77839 14.1976 4.39245 13.495 4.05599 13.307C3.77891 13.1585 3.38307 12.7924 4.04609 12.7825C4.66953 12.7726 5.11484 13.3564 5.26328 13.5939C5.97578 14.7913 7.1138 14.4549 7.56901 14.2471C7.63828 13.7325 7.84609 13.3861 8.0737 13.1882C6.31224 12.9903 4.47161 12.3075 4.47161 9.27936C4.47161 8.41842 4.77839 7.70592 5.28307 7.15176C5.20391 6.95384 4.92682 6.14238 5.36224 5.05384C5.36224 5.05384 6.02526 4.84603 7.53932 5.8653C8.17266 5.68717 8.84557 5.59811 9.51849 5.59811C10.1914 5.59811 10.8643 5.68717 11.4977 5.8653C13.0117 4.83613 13.6747 5.05384 13.6747 5.05384C14.1102 6.14238 13.8331 6.95384 13.7539 7.15176C14.2586 7.70592 14.5654 8.40853 14.5654 9.27936C14.5654 12.3174 12.7148 12.9903 10.9534 13.1882C11.2404 13.4356 11.4878 13.9106 11.4878 14.6528C11.4878 15.7117 11.4779 16.5627 11.4779 16.8299C11.4779 17.0377 11.6263 17.2851 12.0221 17.2059C13.5937 16.6754 14.9594 15.6653 15.9269 14.3179C16.8944 12.9706 17.4149 11.3537 17.4154 9.69499C17.4154 5.32103 13.8727 1.77832 9.4987 1.77832Z" fill="black"/>
</svg>
