<svg width="15" height="15" viewBox="0 0 15 15" fill="none" xmlns="http://www.w3.org/2000/svg">
<path fill-rule="evenodd" clip-rule="evenodd" d="M7.43709 0C3.3297 0 0 3.3297 0 7.43709C0 11.5444 3.3297 14.8742 7.43709 14.8742C11.5444 14.8742 14.8742 11.5444 14.8742 7.43709C14.8742 3.3297 11.5444 0 7.43709 0ZM0.95 7.43709C0.95 3.85437 3.85437 0.95 7.43709 0.95C11.0198 0.95 13.9242 3.85437 13.9242 7.43709C13.9242 11.0198 11.0198 13.9242 7.43709 13.9242C3.85437 13.9242 0.95 11.0198 0.95 7.43709ZM9.13619 4.60598C9.13619 5.23141 8.62918 5.73843 8.00375 5.73843C7.37831 5.73843 6.8713 5.23141 6.8713 4.60598C6.8713 3.98055 7.37831 3.47354 8.00375 3.47354C8.62918 3.47354 9.13619 3.98055 9.13619 4.60598ZM5.80508 5.80471H6.30508H7.43752C7.71367 5.80471 7.93752 6.02857 7.93752 6.30471V10.3345H8.56997H9.06997V11.3345H8.56997H7.43752H6.30508H5.80508V10.3345H6.30508H6.93752V6.80471H6.30508H5.80508V5.80471Z" fill="black"/>
</svg>
