<svg width="15" height="15" viewBox="0 0 15 15" fill="none" xmlns="http://www.w3.org/2000/svg">
<path fill-rule="evenodd" clip-rule="evenodd" d="M8.51206 3.00519C9.18842 2.54573 10.0436 2.53673 10.6789 2.95398C10.8232 3.04872 10.9773 3.19908 11.3891 3.61097C11.801 4.02286 11.9514 4.17693 12.0461 4.3212C12.4634 4.95654 12.4544 5.8117 11.9949 6.48806C11.8901 6.64242 11.7278 6.80789 11.3008 7.23489L10.682 7.85361L10.3285 8.20717L11.0356 8.91427L11.3891 8.56072L12.0079 7.942L12.0508 7.89908C12.4204 7.52955 12.657 7.29308 12.8221 7.04999C13.4973 6.05601 13.5322 4.76231 12.882 3.77226C12.7234 3.53081 12.4923 3.29979 12.1409 2.9485L12.0963 2.90387L12.0516 2.85921C11.7003 2.50778 11.4693 2.27668 11.2279 2.11811C10.2378 1.46792 8.94411 1.50278 7.95013 2.17801C7.70703 2.34315 7.47056 2.57969 7.10102 2.94934L7.05812 2.99225L6.4394 3.61097L6.08584 3.96453L6.79295 4.67163L7.14651 4.31808L7.76522 3.69936C8.19223 3.27236 8.35769 3.11006 8.51206 3.00519ZM4.31808 7.14651L4.67163 6.79295L3.96452 6.08585L3.61097 6.4394L2.99225 7.05812L2.94934 7.10102C2.57969 7.47056 2.34315 7.70703 2.17801 7.95013C1.50278 8.94411 1.46792 10.2378 2.11811 11.2279C2.27668 11.4693 2.50779 11.7003 2.85922 12.0516L2.90386 12.0963L2.94849 12.1409C3.29979 12.4923 3.5308 12.7234 3.77226 12.882C4.76231 13.5322 6.05601 13.4973 7.04999 12.8221C7.29308 12.657 7.52955 12.4204 7.89908 12.0508L7.89909 12.0508L7.942 12.0079L8.56072 11.3891L8.91427 11.0356L8.20717 10.3285L7.85361 10.682L7.23489 11.3008C6.80789 11.7278 6.64242 11.8901 6.48806 11.9949C5.8117 12.4544 4.95654 12.4634 4.3212 12.0461C4.17693 11.9514 4.02286 11.801 3.61097 11.3891C3.19908 10.9773 3.04872 10.8232 2.95397 10.6789C2.53673 10.0436 2.54573 9.18842 3.00519 8.51206C3.11006 8.35769 3.27236 8.19223 3.69936 7.76522L4.31808 7.14651ZM9.62153 6.08546L9.97508 5.73191L9.26798 5.0248L8.91442 5.37835L5.37889 8.91389L5.02534 9.26744L5.73244 9.97455L6.086 9.62099L9.62153 6.08546Z" fill="black"/>
</svg>
