<svg width="15" height="15" viewBox="0 0 15 15" fill="none" xmlns="http://www.w3.org/2000/svg">
<path fill-rule="evenodd" clip-rule="evenodd" d="M7.49978 0.876953C3.8421 0.876953 0.876953 3.8421 0.876953 7.49978C0.876953 11.1574 3.8421 14.1226 7.49978 14.1226C11.1574 14.1226 14.1226 11.1574 14.1226 7.49978C14.1226 3.8421 11.1574 0.876953 7.49978 0.876953ZM1.82695 7.49978C1.82695 4.36677 4.36677 1.82695 7.49978 1.82695C10.6328 1.82695 13.1726 4.36677 13.1726 7.49978C13.1726 10.6328 10.6328 13.1726 7.49978 13.1726C4.36677 13.1726 1.82695 10.6328 1.82695 7.49978ZM4.50039 6.9999H4.00039V7.9999H4.50039H10.5004H11.0004V6.9999H10.5004H4.50039Z" fill="#FF3425"/>
</svg>
