<svg xmlns="http://www.w3.org/2000/svg" width="54" height="54" viewBox="0 0 54 54"><link xmlns="" type="text/css" rel="stylesheet" id="dark-mode-custom-link"/><link xmlns="" type="text/css" rel="stylesheet" id="dark-mode-general-link"/><style xmlns="" lang="en" type="text/css" id="dark-mode-custom-style"/><style xmlns="" lang="en" type="text/css" id="dark-mode-native-style"/><style xmlns="" lang="en" type="text/css" id="dark-mode-native-sheet"/><path d="M88.638,82.054,92.6,75.325l10.689,16.649,0,3.2-.035-21.986a1.657,1.657,0,0,0-.766-1.319L83.252,60.793a1.7,1.7,0,0,0-1.47.007,1.638,1.638,0,0,0-.172.1l-.067.042L62.863,71.767l-.072.033a1.691,1.691,0,0,0-.276.16,1.656,1.656,0,0,0-.689,1.245l.029,17.917,9.957-15.432c1.253-2.046,3.985-2.706,6.52-2.669l2.976.078L63.773,101.218l2.067,1.19L83.583,73.128l7.843-.029-17.7,30.018L81.1,107.36l.881.506a1.691,1.691,0,0,0,1.188.023l19.515-11.309-3.731,2.162Zm1.513,21.792L82.7,92.155l4.547-7.716,9.783,15.419Z" transform="translate(-58.505 -57.311)" fill="#2d374b"/><path d="M124.655,140l7.449,11.691,6.881-3.988L129.2,132.287Z" transform="translate(-100.458 -105.159)" fill="#28a0f0"/><path d="M157.18,124.7l0-3.2-10.689-16.649-3.966,6.729,10.319,16.689,3.731-2.162a1.654,1.654,0,0,0,.611-1.2Z" transform="translate(-112.387 -86.843)" fill="#28a0f0"/><path d="M51.832,123.082l5.269,3.036L74.634,98l-2.976-.078c-2.535-.036-5.267.623-6.52,2.67l-9.957,15.432-3.35,5.147v1.913Z" transform="translate(-51.832 -82.211)" fill="#fff"/><path d="M99.495,98.16l-7.843.029L73.909,127.468l6.2,3.571,1.686-2.86Z" transform="translate(-66.573 -82.372)" fill="#fff"/><path d="M99.93,66.392a5,5,0,0,0-2.345-4.016l-19.5-11.212a5.072,5.072,0,0,0-4.473,0c-.163.082-18.96,10.984-18.96,10.984a4.99,4.99,0,0,0-2.823,4.234V89.6l3.35-5.147-.029-17.917a1.694,1.694,0,0,1,.024-.194,1.65,1.65,0,0,1,.666-1.052c.089-.063,19.207-11.13,19.268-11.16a1.7,1.7,0,0,1,1.47-.007L95.824,65.2a1.657,1.657,0,0,1,.766,1.319V88.709a1.618,1.618,0,0,1-.575,1.2l-3.731,2.162-1.925,1.116-6.881,3.988L76.5,101.222a1.691,1.691,0,0,1-1.188-.023L67.056,96.45l-1.687,2.86,7.42,4.272.643.364c.278.156.467.26.534.292a4.818,4.818,0,0,0,1.97.405,4.96,4.96,0,0,0,1.817-.342L98.021,92.565a4.955,4.955,0,0,0,1.909-3.733Z" transform="translate(-51.832 -50.644)" fill="#96bedc"/></svg>