<svg width="61" height="60" viewBox="0 0 61 60" fill="none" xmlns="http://www.w3.org/2000/svg">
<path fill-rule="evenodd" clip-rule="evenodd" d="M60.688 26.501C59.9807 20.4884 57.4489 14.827 53.4243 10.2586C49.3997 5.69021 44.0702 2.42797 38.1341 0.899424C43.2541 2.55157 47.8017 5.58757 51.2601 9.66242C54.7185 13.7373 56.9491 18.6875 57.6983 23.9507C51.4692 18.9223 41.3948 14.1883 31.8928 17.129C36.076 20.8748 37.0685 25.5397 32.6326 29.5558C37.4673 21.6017 27.8527 18.0903 23.0423 14.4346C19.1575 11.4789 21.4865 7.82623 24.4854 5.26697C27.7766 2.4554 32.657 0.650108 36.2891 0.460868C29.4023 -0.82777 19.0052 0.508928 14.0061 5.4472C9.00698 10.3855 12.4838 17.1621 18.5729 22.614C18.5729 22.614 10.8641 29.8442 6.41912 35.1069C1.97409 40.3696 12.2707 48.0443 12.2707 48.0443C24.2114 39.3333 33.409 46.4913 37.8448 54.9982C33.1287 56.4605 28.1105 56.7007 23.273 55.6959C18.4355 54.691 13.9415 52.4748 10.2234 49.2605C6.50522 46.0461 3.68802 41.9418 2.04279 37.3425C0.397566 32.7431 -0.0203166 27.8033 0.829345 22.9985C-0.201356 27.2657 -0.27224 31.7039 0.621678 36.0011C1.5156 40.2982 3.35262 44.3501 6.00362 47.8718C8.65461 51.3935 12.0552 54.2995 15.9665 56.3857C19.8777 58.4719 24.2046 59.6876 28.643 59.9473C33.0814 60.207 37.5236 59.5044 41.6573 57.889C45.791 56.2735 49.516 53.7843 52.5703 50.5965C55.6246 47.4086 57.9341 43.5994 59.3366 39.4366C60.739 35.2738 61.2003 30.8585 60.688 26.501ZM19.4802 29.0602L15.2178 28.7598L21.6997 23.0976L19.4802 29.0602Z" fill="url(#paint0_linear_1002_445)"/>
<path fill-rule="evenodd" clip-rule="evenodd" d="M8.40247 30.785C11.3861 27.586 14.7382 24.3208 16.4888 22.6417C11.9006 22.4975 7.77834 20.6562 8.12846 15.2883C8.44258 11.7752 9.73546 8.41627 11.8641 5.58301C9.62171 7.24807 7.61843 9.20535 5.90899 11.4014C0.918996 17.8206 0.142637 27.8563 8.40247 30.785Z" fill="url(#paint1_linear_1002_445)"/>
<defs>
<linearGradient id="paint0_linear_1002_445" x1="11.5763" y1="5.28307e-06" x2="62.5364" y2="2.08024" gradientUnits="userSpaceOnUse">
<stop stop-color="#7F7F7F"/>
<stop offset="1"/>
</linearGradient>
<linearGradient id="paint1_linear_1002_445" x1="1.22227" y1="-9.96717" x2="18.3833" y2="-7.29994" gradientUnits="userSpaceOnUse">
<stop stop-color="#7F7F7F"/>
<stop offset="1"/>
</linearGradient>
</defs>
</svg>
